<mxfile host="Electron" modified="2023-11-21T16:34:37.166Z" agent="Mozilla/5.0 (Windows NT 10.0; Win64; x64) AppleWebKit/537.36 (KHTML, like Gecko) draw.io/21.7.5 Chrome/114.0.5735.289 Electron/25.8.1 Safari/537.36" etag="j5jF8QO-mL6h6e3jBv_V" version="21.7.5" type="device">
  <diagram name="Pagina-1" id="_Ku7DFKuj9p869HL_a3B">
    <mxGraphModel dx="1418" dy="1997" grid="1" gridSize="10" guides="1" tooltips="1" connect="1" arrows="1" fold="1" page="1" pageScale="1" pageWidth="827" pageHeight="1169" math="0" shadow="0">
      <root>
        <mxCell id="0" />
        <mxCell id="1" parent="0" />
        <mxCell id="SOh67ngwqMWoOvZ5lUgT-1" value="Convolutional&lt;br&gt;+&lt;br&gt;Pooling&lt;br&gt;Layers" style="rounded=0;whiteSpace=wrap;html=1;fillColor=#f8cecc;strokeColor=#FF0000;fontStyle=1;fontSize=22;strokeWidth=3;" parent="1" vertex="1">
          <mxGeometry x="40" y="80" width="200" height="200" as="geometry" />
        </mxCell>
        <mxCell id="SOh67ngwqMWoOvZ5lUgT-7" value="" style="endArrow=classic;html=1;rounded=0;exitX=1;exitY=0.5;exitDx=0;exitDy=0;strokeWidth=2;" parent="1" source="SOh67ngwqMWoOvZ5lUgT-1" edge="1">
          <mxGeometry width="50" height="50" relative="1" as="geometry">
            <mxPoint x="390" y="210" as="sourcePoint" />
            <mxPoint x="340" y="180" as="targetPoint" />
            <Array as="points">
              <mxPoint x="340" y="180" />
            </Array>
          </mxGeometry>
        </mxCell>
        <mxCell id="vmSUsjtn3qQ5MV0nLQZP-2" value="0" style="rounded=0;whiteSpace=wrap;html=1;fillColor=#dae8fc;strokeColor=#0000FF;fontStyle=1;fontSize=22;strokeWidth=3;" vertex="1" parent="1">
          <mxGeometry x="340" y="-20" width="40" height="40" as="geometry" />
        </mxCell>
        <mxCell id="vmSUsjtn3qQ5MV0nLQZP-3" value="1" style="rounded=0;whiteSpace=wrap;html=1;fillColor=#dae8fc;strokeColor=#0000FF;fontStyle=1;fontSize=22;strokeWidth=3;" vertex="1" parent="1">
          <mxGeometry x="340" y="20" width="40" height="40" as="geometry" />
        </mxCell>
        <mxCell id="vmSUsjtn3qQ5MV0nLQZP-4" value="9" style="rounded=0;whiteSpace=wrap;html=1;fillColor=#dae8fc;strokeColor=#0000FF;fontStyle=1;fontSize=22;strokeWidth=3;" vertex="1" parent="1">
          <mxGeometry x="340" y="340" width="40" height="40" as="geometry" />
        </mxCell>
        <mxCell id="vmSUsjtn3qQ5MV0nLQZP-5" value="8" style="rounded=0;whiteSpace=wrap;html=1;fillColor=#dae8fc;strokeColor=#0000FF;fontStyle=1;fontSize=22;strokeWidth=3;" vertex="1" parent="1">
          <mxGeometry x="340" y="300" width="40" height="40" as="geometry" />
        </mxCell>
        <mxCell id="vmSUsjtn3qQ5MV0nLQZP-6" value="7" style="rounded=0;whiteSpace=wrap;html=1;fillColor=#dae8fc;strokeColor=#0000FF;fontStyle=1;fontSize=22;strokeWidth=3;" vertex="1" parent="1">
          <mxGeometry x="340" y="260" width="40" height="40" as="geometry" />
        </mxCell>
        <mxCell id="vmSUsjtn3qQ5MV0nLQZP-7" value="6" style="rounded=0;whiteSpace=wrap;html=1;fillColor=#dae8fc;strokeColor=#0000FF;fontStyle=1;fontSize=22;strokeWidth=3;" vertex="1" parent="1">
          <mxGeometry x="340" y="220" width="40" height="40" as="geometry" />
        </mxCell>
        <mxCell id="vmSUsjtn3qQ5MV0nLQZP-8" value="5" style="rounded=0;whiteSpace=wrap;html=1;fillColor=#dae8fc;strokeColor=#0000FF;fontStyle=1;fontSize=22;strokeWidth=3;" vertex="1" parent="1">
          <mxGeometry x="340" y="180" width="40" height="40" as="geometry" />
        </mxCell>
        <mxCell id="vmSUsjtn3qQ5MV0nLQZP-9" value="4" style="rounded=0;whiteSpace=wrap;html=1;fillColor=#dae8fc;strokeColor=#0000FF;fontStyle=1;fontSize=22;strokeWidth=3;" vertex="1" parent="1">
          <mxGeometry x="340" y="140" width="40" height="40" as="geometry" />
        </mxCell>
        <mxCell id="vmSUsjtn3qQ5MV0nLQZP-10" value="3" style="rounded=0;whiteSpace=wrap;html=1;fillColor=#dae8fc;strokeColor=#0000FF;fontStyle=1;fontSize=22;strokeWidth=3;" vertex="1" parent="1">
          <mxGeometry x="340" y="100" width="40" height="40" as="geometry" />
        </mxCell>
        <mxCell id="vmSUsjtn3qQ5MV0nLQZP-11" value="2" style="rounded=0;whiteSpace=wrap;html=1;fillColor=#dae8fc;strokeColor=#0000FF;fontStyle=1;fontSize=22;strokeWidth=3;" vertex="1" parent="1">
          <mxGeometry x="340" y="60" width="40" height="40" as="geometry" />
        </mxCell>
        <mxCell id="vmSUsjtn3qQ5MV0nLQZP-12" value="YES/NO" style="endArrow=classic;html=1;rounded=0;strokeWidth=2;" edge="1" parent="1">
          <mxGeometry width="50" height="50" relative="1" as="geometry">
            <mxPoint x="380" as="sourcePoint" />
            <mxPoint x="460" y="-0.5" as="targetPoint" />
            <Array as="points">
              <mxPoint x="460" y="-0.5" />
            </Array>
          </mxGeometry>
        </mxCell>
        <mxCell id="vmSUsjtn3qQ5MV0nLQZP-13" value="YES/NO" style="endArrow=classic;html=1;rounded=0;strokeWidth=2;" edge="1" parent="1">
          <mxGeometry width="50" height="50" relative="1" as="geometry">
            <mxPoint x="380" y="40" as="sourcePoint" />
            <mxPoint x="460" y="39.5" as="targetPoint" />
            <Array as="points">
              <mxPoint x="460" y="39.5" />
            </Array>
          </mxGeometry>
        </mxCell>
        <mxCell id="vmSUsjtn3qQ5MV0nLQZP-14" value="YES/NO" style="endArrow=classic;html=1;rounded=0;strokeWidth=2;" edge="1" parent="1">
          <mxGeometry width="50" height="50" relative="1" as="geometry">
            <mxPoint x="380" y="120" as="sourcePoint" />
            <mxPoint x="460" y="119.5" as="targetPoint" />
            <Array as="points">
              <mxPoint x="460" y="119.5" />
            </Array>
          </mxGeometry>
        </mxCell>
        <mxCell id="vmSUsjtn3qQ5MV0nLQZP-15" value="YES/NO" style="endArrow=classic;html=1;rounded=0;strokeWidth=2;" edge="1" parent="1">
          <mxGeometry width="50" height="50" relative="1" as="geometry">
            <mxPoint x="380" y="160" as="sourcePoint" />
            <mxPoint x="460" y="159.5" as="targetPoint" />
            <Array as="points">
              <mxPoint x="460" y="159.5" />
            </Array>
          </mxGeometry>
        </mxCell>
        <mxCell id="vmSUsjtn3qQ5MV0nLQZP-16" value="YES/NO" style="endArrow=classic;html=1;rounded=0;strokeWidth=2;" edge="1" parent="1">
          <mxGeometry width="50" height="50" relative="1" as="geometry">
            <mxPoint x="380" y="80" as="sourcePoint" />
            <mxPoint x="460" y="79.5" as="targetPoint" />
            <Array as="points">
              <mxPoint x="460" y="79.5" />
            </Array>
          </mxGeometry>
        </mxCell>
        <mxCell id="vmSUsjtn3qQ5MV0nLQZP-17" value="YES/NO" style="endArrow=classic;html=1;rounded=0;strokeWidth=2;" edge="1" parent="1">
          <mxGeometry width="50" height="50" relative="1" as="geometry">
            <mxPoint x="380" y="200" as="sourcePoint" />
            <mxPoint x="460" y="199.5" as="targetPoint" />
            <Array as="points">
              <mxPoint x="460" y="199.5" />
            </Array>
          </mxGeometry>
        </mxCell>
        <mxCell id="vmSUsjtn3qQ5MV0nLQZP-18" value="YES/NO" style="endArrow=classic;html=1;rounded=0;strokeWidth=2;" edge="1" parent="1">
          <mxGeometry width="50" height="50" relative="1" as="geometry">
            <mxPoint x="380" y="240" as="sourcePoint" />
            <mxPoint x="460" y="239.5" as="targetPoint" />
            <Array as="points">
              <mxPoint x="460" y="239.5" />
            </Array>
          </mxGeometry>
        </mxCell>
        <mxCell id="vmSUsjtn3qQ5MV0nLQZP-19" value="YES/NO" style="endArrow=classic;html=1;rounded=0;strokeWidth=2;" edge="1" parent="1">
          <mxGeometry width="50" height="50" relative="1" as="geometry">
            <mxPoint x="380" y="280" as="sourcePoint" />
            <mxPoint x="460" y="279.5" as="targetPoint" />
            <Array as="points">
              <mxPoint x="460" y="279.5" />
            </Array>
          </mxGeometry>
        </mxCell>
        <mxCell id="vmSUsjtn3qQ5MV0nLQZP-20" value="YES/NO" style="endArrow=classic;html=1;rounded=0;strokeWidth=2;" edge="1" parent="1">
          <mxGeometry width="50" height="50" relative="1" as="geometry">
            <mxPoint x="380" y="320" as="sourcePoint" />
            <mxPoint x="460" y="319.5" as="targetPoint" />
            <Array as="points">
              <mxPoint x="460" y="319.5" />
            </Array>
          </mxGeometry>
        </mxCell>
        <mxCell id="vmSUsjtn3qQ5MV0nLQZP-21" value="YES/NO" style="endArrow=classic;html=1;rounded=0;strokeWidth=2;" edge="1" parent="1">
          <mxGeometry width="50" height="50" relative="1" as="geometry">
            <mxPoint x="380" y="360" as="sourcePoint" />
            <mxPoint x="460" y="359.5" as="targetPoint" />
            <Array as="points">
              <mxPoint x="460" y="359.5" />
            </Array>
          </mxGeometry>
        </mxCell>
        <mxCell id="vmSUsjtn3qQ5MV0nLQZP-22" value="Final Output" style="rounded=0;whiteSpace=wrap;html=1;fillColor=#dae8fc;strokeColor=#0000FF;fontStyle=1;fontSize=22;strokeWidth=3;" vertex="1" parent="1">
          <mxGeometry x="460" y="-20" width="120" height="400" as="geometry" />
        </mxCell>
        <mxCell id="vmSUsjtn3qQ5MV0nLQZP-23" value="Softmax&lt;br&gt;Layer" style="rounded=0;whiteSpace=wrap;html=1;fillColor=#dae8fc;strokeColor=#0000FF;fontStyle=1;fontSize=22;strokeWidth=3;" vertex="1" parent="1">
          <mxGeometry x="300" y="-90" width="120" height="60" as="geometry" />
        </mxCell>
      </root>
    </mxGraphModel>
  </diagram>
</mxfile>
